<?xml version="1.0" standalone="no"?>
<!DOCTYPE svg PUBLIC "-//W3C//DTD SVG 20010904//EN"
 "http://www.w3.org/TR/2001/REC-SVG-20010904/DTD/svg10.dtd">
<svg version="1.0" xmlns="http://www.w3.org/2000/svg"
 width="512.000000pt" height="512.000000pt" viewBox="0 0 512.000000 512.000000"
 preserveAspectRatio="xMidYMid meet">
<metadata>
Created by potrace 1.11, written by Peter Selinger 2001-2013
</metadata>
<g transform="translate(0.000000,512.000000) scale(0.100000,-0.100000)"
fill="#000000" stroke="none">
<path d="M3549 4966 c-2 -2 -26 -6 -54 -10 -190 -22 -411 -117 -591 -254 -35
-26 -231 -215 -436 -420 l-373 -374 50 8 c136 20 458 3 562 -30 12 -4 30 -9
40 -11 10 -2 50 -14 88 -26 39 -13 73 -23 78 -24 4 0 94 86 200 190 203 201
251 236 377 281 94 33 241 41 340 19 295 -67 509 -344 496 -641 -5 -97 -9
-121 -32 -192 -15 -43 -64 -138 -89 -171 -5 -7 -240 -244 -520 -526 -422 -423
-522 -518 -576 -548 -120 -67 -182 -82 -334 -81 -117 0 -138 4 -232 43 -106
44 -171 92 -250 186 -39 47 -93 143 -108 193 -3 12 -14 22 -22 22 -9 0 -120
-103 -247 -230 l-231 -229 19 -33 c23 -41 115 -163 153 -203 238 -254 571
-397 923 -397 74 0 149 2 165 6 17 3 48 9 70 11 90 12 246 65 360 122 46 24
153 90 165 103 3 3 23 18 45 34 60 44 1053 1037 1110 1111 306 394 363 908
150 1350 -60 123 -66 133 -153 245 -170 218 -409 371 -694 446 -87 22 -129 27
-274 30 -93 3 -172 3 -175 0z"/>
<path d="M2202 3608 c-23 -4 -59 -9 -80 -11 -178 -20 -431 -134 -600 -269 -15
-12 -266 -261 -558 -553 -471 -470 -538 -541 -597 -630 -36 -55 -82 -136 -101
-179 -37 -79 -88 -236 -101 -311 -11 -63 -15 -355 -5 -405 4 -25 11 -63 14
-85 10 -58 70 -234 107 -307 117 -235 339 -458 569 -573 126 -63 278 -109 440
-131 35 -5 280 -5 288 0 4 2 30 7 57 10 107 14 266 65 370 119 164 84 229 140
630 539 l390 387 -70 -7 c-91 -8 -284 -8 -360 1 -63 7 -76 10 -162 28 -29 5
-54 10 -55 10 -2 0 -41 12 -88 28 l-85 30 -185 -183 c-238 -235 -294 -273
-460 -310 -160 -37 -323 -6 -485 91 -57 34 -169 158 -208 230 -78 148 -97 344
-47 493 49 147 69 171 579 683 262 263 503 500 536 526 114 92 234 136 380
140 270 8 508 -148 607 -396 l25 -62 24 16 c30 20 459 445 459 455 0 12 -63
108 -110 167 -118 149 -302 287 -485 364 -109 46 -182 66 -343 93 -53 9 -243
10 -290 2z"/>
</g>
</svg>
